<svg xmlns="http://www.w3.org/2000/svg" width="60" height="59.061" viewBox="0 0 60 59.061">
  <path id="Subtraction_7" data-name="Subtraction 7" d="M-1147.477,59.061h0a29.793,29.793,0,0,1-8.981-3.975,30.1,30.1,0,0,1-7.135-6.556,29.885,29.885,0,0,1-4.707-8.555A29.926,29.926,0,0,1-1170,30a29.812,29.812,0,0,1,2.358-11.677,29.9,29.9,0,0,1,6.429-9.536,29.9,29.9,0,0,1,9.536-6.429A29.811,29.811,0,0,1-1140,0a29.813,29.813,0,0,1,11.678,2.358,29.9,29.9,0,0,1,9.536,6.429,29.9,29.9,0,0,1,6.429,9.536A29.812,29.812,0,0,1-1110,30a29.945,29.945,0,0,1-1.636,9.8,29.876,29.876,0,0,1-4.543,8.442,30.1,30.1,0,0,1-6.9,6.538,29.82,29.82,0,0,1-8.712,4.086,86.979,86.979,0,0,0-.074-11.337c-.5-4.3-1.988-4.6-2-4.6.061,0,6.235-.163,9.739-3.741,3.452-3.524,4.213-5.645,4.282-11.941a13.635,13.635,0,0,0-1.528-6.745,7.865,7.865,0,0,0-1.58-2.1c.018-.075,1.736-7.4-.483-8.7a1.883,1.883,0,0,0-.965-.229c-2.646,0-7.414,3.645-7.462,3.682a28.613,28.613,0,0,0-7.806-1.3,28.731,28.731,0,0,0-7.8,1.3c-.046-.034-4.592-3.338-7.189-3.338a2,2,0,0,0-1.03.244c-2.183,1.3-.637,8.274-.621,8.345a14.388,14.388,0,0,0-2.832,5.684c-.654,3.254-1.007,5.629,0,8.881,1.082,3.493,2.947,5.388,6.009,7.664a13.662,13.662,0,0,0,7.565,2.3c.111,0,.17,0,.17,0a4.778,4.778,0,0,0-1.45,1.8,3.8,3.8,0,0,0-.237,1.6c0,.589,0,1.054-.385,1.2a8.2,8.2,0,0,1-2.95.578,6.489,6.489,0,0,1-2.714-.578c-2.486-1.135-4.4-4.57-4.421-4.6a6,6,0,0,0-2.417-1.583l-.307-.079a6.013,6.013,0,0,0-1.389-.259.991.991,0,0,0-1,.626c-.349.769,1.414,2.021,2.362,2.694.245.174.438.311.539.4a4.842,4.842,0,0,1,.722,1.352,12.588,12.588,0,0,0,1.625,2.94c.182.223.338.422.49.615a5.531,5.531,0,0,0,3.549,2.407,7.678,7.678,0,0,0,2.142.271,15.149,15.149,0,0,0,3.769-.535V59.06Z" transform="translate(1170)" fill="#ff8303"/>
</svg>
