<svg width="512" height="512" viewBox="0 0 512 512" fill="none" xmlns="http://www.w3.org/2000/svg">
<rect width="512" height="512" fill="none"/>
<path d="M210.354 215.976V296.087H227.389V249.125L251.331 287.339H260.539L284.02 249.125V296.087H301.515V215.976H286.782L256.395 266.161L226.008 215.976H210.354Z" fill="#FC7926"/>
<path fill-rule="evenodd" clip-rule="evenodd" d="M256.21 494.466C311.032 494.466 355.474 387.805 355.474 256.233C355.474 124.66 311.032 18 256.21 18C201.389 18 156.947 124.66 156.947 256.233C156.947 387.805 201.389 494.466 256.21 494.466ZM256.21 474.613C300.068 474.613 335.621 376.841 335.621 256.233C335.621 135.625 300.068 37.8527 256.21 37.8527C212.353 37.8527 176.799 135.625 176.799 256.233C176.799 376.841 212.353 474.613 256.21 474.613Z" fill="#FC7926"/>
<path fill-rule="evenodd" clip-rule="evenodd" d="M462.671 375.61C490.082 328.133 419.932 236.315 305.987 170.529C192.042 104.743 77.4503 89.9005 50.0394 137.378C22.6285 184.855 92.7783 276.673 206.723 342.459C320.668 408.245 435.26 423.088 462.671 375.61ZM445.478 365.684C467.407 327.702 400.51 248.026 296.061 187.722C191.611 127.418 89.1611 109.322 67.2324 147.304C45.3036 185.286 112.2 264.962 216.65 325.266C321.099 385.57 423.549 403.666 445.478 365.684Z" fill="#FC7926"/>
<path fill-rule="evenodd" clip-rule="evenodd" d="M49.9345 375.347C77.3454 422.824 191.937 407.982 305.882 342.196C419.827 276.409 489.977 184.591 462.566 137.114C435.155 89.6372 320.563 104.48 206.618 170.266C92.6734 236.052 22.5236 327.87 49.9345 375.347ZM67.1275 365.421C89.0563 403.403 191.506 385.307 295.956 325.003C400.405 264.699 467.302 185.022 445.373 147.041C423.444 109.059 320.994 127.155 216.545 187.459C112.095 247.763 45.1988 327.439 67.1275 365.421Z" fill="#FC7926"/>
</svg>
