<svg width="512" height="512" viewBox="0 0 512 512" fill="none" xmlns="http://www.w3.org/2000/svg">
<rect width="512" height="512" fill="none"/>
<path d="M211.275 215.976V296.087H228.31V249.125L252.251 287.339H261.46L284.94 249.125V296.087H302.436V215.976H287.703L257.316 266.161L226.929 215.976H211.275Z" fill="#FC7926"/>
<path fill-rule="evenodd" clip-rule="evenodd" d="M257.131 494.466C311.953 494.466 356.395 387.805 356.395 256.233C356.395 124.66 311.953 18 257.131 18C202.309 18 157.867 124.66 157.867 256.233C157.867 387.805 202.309 494.466 257.131 494.466ZM257.316 486.697C307.663 486.697 348.477 383.63 348.477 256.492C348.477 129.353 307.663 26.2874 257.316 26.2874C206.969 26.2874 166.155 129.353 166.155 256.492C166.155 383.63 206.969 486.697 257.316 486.697Z" fill="#FC7926"/>
<path fill-rule="evenodd" clip-rule="evenodd" d="M462.671 375.61C490.082 328.133 419.932 236.315 305.987 170.529C192.042 104.743 77.4503 89.9005 50.0394 137.378C22.6285 184.855 92.7782 276.673 206.723 342.459C320.668 408.245 435.26 423.088 462.671 375.61ZM456.035 371.566C481.208 327.964 412.357 241.085 302.252 177.516C192.147 113.947 82.4822 97.7597 57.3088 141.361C32.1354 184.963 100.986 271.842 211.091 335.411C321.196 398.981 430.861 415.168 456.035 371.566Z" fill="#FC7926"/>
<path fill-rule="evenodd" clip-rule="evenodd" d="M49.9345 375.347C77.3454 422.824 191.937 407.982 305.882 342.196C419.827 276.409 489.977 184.591 462.566 137.114C435.155 89.6373 320.563 104.48 206.618 170.266C92.6734 236.052 22.5236 327.87 49.9345 375.347ZM56.7553 371.623C81.9287 415.224 191.594 399.037 301.699 335.468C411.804 271.899 480.655 185.02 455.481 141.418C430.308 97.8163 320.643 114.003 210.538 177.573C100.433 241.142 31.5819 328.021 56.7553 371.623Z" fill="#FC7926"/>
</svg>
