<svg xmlns="http://www.w3.org/2000/svg" width="60" height="60" viewBox="0 0 60 60">
  <g id="Group_6" data-name="Group 6" transform="translate(-317 -1280)">
    <g id="Ellipse_12" data-name="Ellipse 12" transform="translate(317 1280)" fill="none" stroke="#ff8303" stroke-width="3">
      <circle cx="30" cy="30" r="30" stroke="none"/>
      <circle cx="30" cy="30" r="28.5" fill="none"/>
    </g>
    <g id="Ellipse_13" data-name="Ellipse 13" transform="translate(329 1280)" fill="none" stroke="#ff8303" stroke-width="3">
      <ellipse cx="18" cy="30" rx="18" ry="30" stroke="none"/>
      <ellipse cx="18" cy="30" rx="16.5" ry="28.5" fill="none"/>
    </g>
    <line id="Line_1" data-name="Line 1" x2="59" y2="1" transform="translate(317.5 1310.5)" fill="none" stroke="#ff8303" stroke-width="3"/>
    <g id="Intersection_2" data-name="Intersection 2" transform="translate(1487 1280)" fill="none">
      <path d="M-1162.361,50A29.89,29.89,0,0,1-1170,30a29.855,29.855,0,0,1,4.618-16h50.764A29.855,29.855,0,0,1-1110,30a29.89,29.89,0,0,1-7.639,20Z" stroke="none"/>
      <path d="M -1119.022827148438 47.00040054321289 C -1115.12939453125 42.20142364501953 -1112.999755859375 36.21493530273438 -1112.999755859375 29.99970054626465 C -1112.999755859375 25.42835235595703 -1114.146484375 20.96728134155273 -1116.3291015625 17.00040054321289 L -1163.670654296875 17.00040054321289 C -1165.853271484375 20.96729850769043 -1167 25.42836380004883 -1167 29.99970054626465 C -1167 36.21489334106445 -1164.870361328125 42.20136260986328 -1160.97705078125 47.00040054321289 L -1119.022827148438 47.00040054321289 M -1117.639038085938 50.00040054321289 L -1162.36083984375 50.00040054321289 C -1167.111206054688 44.69273376464844 -1170 37.68349075317383 -1170 29.99970054626465 C -1170 24.11733436584473 -1168.307495117188 18.63126754760742 -1165.381958007813 14.00040054321289 L -1114.617797851563 14.00040054321289 C -1111.692260742188 18.63126754760742 -1109.999755859375 24.11733436584473 -1109.999755859375 29.99970054626465 C -1109.999755859375 37.68349075317383 -1112.888549804688 44.69273376464844 -1117.639038085938 50.00040054321289 Z" stroke="none" fill="#ff8303"/>
    </g>
    <line id="Line_2" data-name="Line 2" y2="58" transform="translate(347.5 1281.5)" fill="none" stroke="#ff8303" stroke-width="3"/>
  </g>
</svg>
